HIERARCHY
ROOT Hips
{
	OFFSET -14.64140 90.27770 -84.91600
	CHANNELS 6 Xposition Yposition Zposition Zrotation Xrotation Yrotation
	JOINT Spine
	{
		OFFSET 0.00000 13.20850 -1.60436
		CHANNELS 3 Zrotation Xrotation Yrotation
		JOINT Spine1
		{
			OFFSET 0.00000 8.61716 0.00000
			CHANNELS 3 Zrotation Xrotation Yrotation
			JOINT Spine2
			{
				OFFSET 0.00000 8.61717 0.00000
				CHANNELS 3 Zrotation Xrotation Yrotation
				JOINT Spine3
				{
					OFFSET 0.00000 8.61717 0.00000
					CHANNELS 3 Zrotation Xrotation Yrotation
					JOINT Neck
					{
						OFFSET 0.00000 11.07920 1.10792
						CHANNELS 3 Zrotation Xrotation Yrotation
						JOINT Neck1
						{
							OFFSET 0.00000 7.08032 0.00000
							CHANNELS 3 Zrotation Xrotation Yrotation
							JOINT Head
							{
								OFFSET 0.00000 7.08031 0.00000
								CHANNELS 3 Zrotation Xrotation Yrotation
								End site
								{
									OFFSET 0.00000 0.00000 0.00000
								}
							}
						}
					}
					JOINT RightShoulder
					{
						OFFSET -0.01000 7.91373 5.19711
						CHANNELS 3 Zrotation Xrotation Yrotation
						JOINT RightArm
						{
							OFFSET -18.41580 0.00000 0.00000
							CHANNELS 3 Zrotation Xrotation Yrotation
							JOINT RightForeArm
							{
								OFFSET -29.11090 0.00000 0.00000
								CHANNELS 3 Zrotation Xrotation Yrotation
								JOINT RightHand
								{
									OFFSET -24.65040 0.00000 0.00000
									CHANNELS 3 Zrotation Xrotation Yrotation
									JOINT RightHandThumb1
									{
										OFFSET -5.35114 -0.85590 3.97906
										CHANNELS 3 Zrotation Xrotation Yrotation
										JOINT RightHandThumb2
										{
											OFFSET -4.52789 0.00000 0.00000
											CHANNELS 3 Zrotation Xrotation Yrotation
											JOINT RightHandThumb3
											{
												OFFSET -2.46976 0.00000 0.00000
												CHANNELS 3 Zrotation Xrotation Yrotation
												End site
												{
													OFFSET 0.00000 0.00000 0.00000
												}
											}
										}
									}
									JOINT RightHandIndex1
									{
										OFFSET -14.26970 0.00000 2.88139
										CHANNELS 3 Zrotation Xrotation Yrotation
										JOINT RightHandIndex2
										{
											OFFSET -5.48836 0.00000 0.00000
											CHANNELS 3 Zrotation Xrotation Yrotation
											JOINT RightHandIndex3
											{
												OFFSET -3.01859 0.00000 0.00000
												CHANNELS 3 Zrotation Xrotation Yrotation
												End site
												{
													OFFSET 0.00000 0.00000 0.00000
												}
											}
										}
									}
									JOINT RightHandMiddle1
									{
										OFFSET -14.26970 0.00000 -0.09147
										CHANNELS 3 Zrotation Xrotation Yrotation
										JOINT RightHandMiddle2
										{
											OFFSET -6.17441 0.00000 0.00000
											CHANNELS 3 Zrotation Xrotation Yrotation
											JOINT RightHandMiddle3
											{
												OFFSET -3.56743 0.00000 0.00000
												CHANNELS 3 Zrotation Xrotation Yrotation
												End site
												{
													OFFSET 0.00000 0.00000 0.00000
												}
											}
										}
									}
									JOINT RightHandRing1
									{
										OFFSET -12.69180 0.00000 -3.06433
										CHANNELS 3 Zrotation Xrotation Yrotation
										JOINT RightHandRing2
										{
											OFFSET -5.62556 0.00000 0.00000
											CHANNELS 3 Zrotation Xrotation Yrotation
											JOINT RightHandRing3
											{
												OFFSET -3.56744 0.00000 0.00000
												CHANNELS 3 Zrotation Xrotation Yrotation
												End site
												{
													OFFSET 0.00000 0.00000 0.00000
												}
											}
										}
									}
									JOINT RightHandPinky1
									{
										OFFSET -11.11390 0.00000 -6.03719
										CHANNELS 3 Zrotation Xrotation Yrotation
										JOINT RightHandPinky2
										{
											OFFSET -4.52789 0.00000 0.00000
											CHANNELS 3 Zrotation Xrotation Yrotation
											JOINT RightHandPinky3
											{
												OFFSET -2.46976 0.00000 0.00000
												CHANNELS 3 Zrotation Xrotation Yrotation
												End site
												{
													OFFSET 0.00000 0.00000 0.00000
												}
											}
										}
									}
								}
							}
						}
					}
					JOINT LeftShoulder
					{
						OFFSET 0.01000 7.91373 5.19711
						CHANNELS 3 Zrotation Xrotation Yrotation
						JOINT LeftArm
						{
							OFFSET 18.41580 0.00000 0.00000
							CHANNELS 3 Zrotation Xrotation Yrotation
							JOINT LeftForeArm
							{
								OFFSET 29.11090 0.00000 0.00000
								CHANNELS 3 Zrotation Xrotation Yrotation
								JOINT LeftHand
								{
									OFFSET 24.65040 0.00000 0.00000
									CHANNELS 3 Zrotation Xrotation Yrotation
									JOINT LeftHandThumb1
									{
										OFFSET 5.35114 -0.85590 3.97906
										CHANNELS 3 Zrotation Xrotation Yrotation
										JOINT LeftHandThumb2
										{
											OFFSET 4.52789 0.00000 0.00000
											CHANNELS 3 Zrotation Xrotation Yrotation
											JOINT LeftHandThumb3
											{
												OFFSET 2.46977 0.00000 0.00000
												CHANNELS 3 Zrotation Xrotation Yrotation
												End site
												{
													OFFSET 0.00000 0.00000 0.00000
												}
											}
										}
									}
									JOINT LeftHandIndex1
									{
										OFFSET 14.26970 0.00000 2.88139
										CHANNELS 3 Zrotation Xrotation Yrotation
										JOINT LeftHandIndex2
										{
											OFFSET 5.48836 0.00000 0.00000
											CHANNELS 3 Zrotation Xrotation Yrotation
											JOINT LeftHandIndex3
											{
												OFFSET 3.01859 0.00000 0.00000
												CHANNELS 3 Zrotation Xrotation Yrotation
												End site
												{
													OFFSET 0.00000 0.00000 0.00000
												}
											}
										}
									}
									JOINT LeftHandMiddle1
									{
										OFFSET 14.26970 0.00000 -0.09147
										CHANNELS 3 Zrotation Xrotation Yrotation
										JOINT LeftHandMiddle2
										{
											OFFSET 6.17440 0.00000 0.00000
											CHANNELS 3 Zrotation Xrotation Yrotation
											JOINT LeftHandMiddle3
											{
												OFFSET 3.56744 0.00000 0.00000
												CHANNELS 3 Zrotation Xrotation Yrotation
												End site
												{
													OFFSET 0.00000 0.00000 0.00000
												}
											}
										}
									}
									JOINT LeftHandRing1
									{
										OFFSET 12.69180 0.00000 -3.06433
										CHANNELS 3 Zrotation Xrotation Yrotation
										JOINT LeftHandRing2
										{
											OFFSET 5.62556 0.00000 0.00000
											CHANNELS 3 Zrotation Xrotation Yrotation
											JOINT LeftHandRing3
											{
												OFFSET 3.56744 0.00000 0.00000
												CHANNELS 3 Zrotation Xrotation Yrotation
												End site
												{
													OFFSET 0.00000 0.00000 0.00000
												}
											}
										}
									}
									JOINT LeftHandPinky1
									{
										OFFSET 11.11390 0.00000 -6.03719
										CHANNELS 3 Zrotation Xrotation Yrotation
										JOINT LeftHandPinky2
										{
											OFFSET 4.52789 0.00000 0.00000
											CHANNELS 3 Zrotation Xrotation Yrotation
											JOINT LeftHandPinky3
											{
												OFFSET 2.46976 0.00000 0.00000
												CHANNELS 3 Zrotation Xrotation Yrotation
												End site
												{
													OFFSET 0.00000 0.00000 0.00000
												}
											}
										}
									}
								}
							}
						}
					}
					JOINT pCube4
					{
						OFFSET 0.00000 10.91090 1.10792
						CHANNELS 3 Zrotation Xrotation Yrotation
						End site
						{
							OFFSET 0.00000 0.00000 0.00000
						}
					}
				}
			}
		}
	}
	JOINT RightUpLeg
	{
		OFFSET -9.98441 0.00000 0.00000
		CHANNELS 3 Zrotation Xrotation Yrotation
		JOINT RightLeg
		{
			OFFSET 0.00000 -42.11790 0.00000
			CHANNELS 3 Zrotation Xrotation Yrotation
			JOINT RightFoot
			{
				OFFSET 0.00000 -45.00020 -0.00001
				CHANNELS 3 Zrotation Xrotation Yrotation
				JOINT RightForeFoot
				{
					OFFSET 0.00000 -3.74820 0.00000
					CHANNELS 3 Zrotation Xrotation Yrotation
					JOINT RightToeBase
					{
						OFFSET 0.00000 0.06325 14.43120
						CHANNELS 3 Zrotation Xrotation Yrotation
						End site
						{
							OFFSET 0.00000 0.00000 0.00000
						}
					}
				}
			}
		}
	}
	JOINT LeftUpLeg
	{
		OFFSET 9.98441 0.00000 0.00000
		CHANNELS 3 Zrotation Xrotation Yrotation
		JOINT LeftLeg
		{
			OFFSET 0.00000 -42.11800 0.00000
			CHANNELS 3 Zrotation Xrotation Yrotation
			JOINT LeftFoot
			{
				OFFSET 0.00000 -45.00070 0.00000
				CHANNELS 3 Zrotation Xrotation Yrotation
				JOINT LeftForeFoot
				{
					OFFSET 0.00000 -3.74824 0.00000
					CHANNELS 3 Zrotation Xrotation Yrotation
					JOINT LeftToeBase
					{
						OFFSET 0.00000 0.06325 14.43110
						CHANNELS 3 Zrotation Xrotation Yrotation
						End site
						{
							OFFSET 0.00000 0.00000 0.00000
						}
					}
				}
			}
		}
	}
}
MOTION
Frames: 4
Frame Time: 0.050000
-0.020120011838405297 0.04414425907599833 0.03153926570685098 -0.04348318487523039 0.01125211796838587 0.03790839732376544 4.559980471841529 3.146458624477773 -2.1064860051254044 -0.7234605070532556 3.577847959405061 0.4130362379366135 -0.6427784885646987 -1.0490915843294422 -0.18051781440813816 -0.36218270839405514 -0.25362326624415704 -0.41836850015337773 -0.14102758086105435 12.33947844896405 -0.9876029522742816 0.3421156888933335 -0.43905452436490183 -1.4043177592194522 0.6571777466236665 -16.796537111837324 -0.14456493688533809 -9.336673321370052 3.1974152653312244 -18.47304460512439 77.40132151613946 5.371222541337885 -0.1798040698783648 -17.647573284223213 -4.462399516452307 59.28721677623626 22.334408874965362 -0.2266248305149999 -7.265889870018268 4.5302657636274954 -0.1098831931811149 -1.5626407605118582 -0.0037218583347161487 -0.011180683626292766 -56.25899220581097 -0.01685359019220534 0.04547585416817451 -56.21647202117973 -38.77413529530652 -0.02855303952768117 -0.013484537917702604 -0.0076331005897248795 0.004749962948565565 0.010811347487388085 -0.019874393121359035 0.04157182013976136 0.0027972681501234366 -36.65561502925194 0.03439684852989749 -0.023326154916742167 -0.03201965577133949 0.0032932562586436907 0.007484108759635369 0.014115089471540807 0.018448922192090683 -0.022321762772206877 -19.7214646575217 0.025888178750085533 0.025368878241219767 -0.04240667869672466 0.03248127100517477 -0.006669998089830441 0.0365517396111423 -0.00491800234696028 -0.01810408220041735 24.099543498673096 -0.030957493912138888 0.037800690230687585 28.88879388014156 0.03510638787629166 -0.04289012149148901 28.857420848344553 0.04020512279093364 0.043901383052755864 10.176090993055212 2.3868678436520083 15.2872769750298 -72.66349971477462 19.92847339466404 -13.828493455601496 -40.68398059256602 6.689716350868911 -90.56758539079372 -21.70496309572196 -9.763015199564455 6.555658447949909 -0.46924338083564504 0.06969878373722879 -8.108120386084629 0.027754009409807375 -0.04527366983161899 44.561918199838225 -0.011515905434821625 -0.008073429275457494 44.573125221675426 12.461540766317459 0.03269289421564942 -0.029476764767471922 0.02570818871173015 -0.02751130082198084 0.011017307198713189 -0.026690643693848645 -0.007387292695444003 -0.0037560581419143935 11.095188789144585 -0.018019041683485917 0.029813763591233947 -0.009678508187527352 -0.04785560482589057 -0.04488341137360759 -0.021442634143787474 -0.009018558185182098 -0.00800495258068241 4.742669191622934 0.0029812999579430623 -0.0320064154438612 -0.006914363046710655 -0.031205613257189787 -0.01629961180172216 0.03322013923148319 -0.01026102986531545 -0.033190225668787064 -5.62375451459172 -0.003239634411372397 -0.044111034558114 -6.739527353723 0.03177773851491999 -0.002202331896211708 -6.738957502139189 0.025714724869094187 -0.002718319342795087 0.01922400280037572 -0.047552844785602226 0.0014391435846478628 8.015104875486209 3.510548568736253 -19.252259995068673 -0.03261714459339417 10.424307629378891 -0.014861057886886509 -5.660678598084373 -15.679190966611184 3.209043833948 0.03184982287886583 -0.03305423085067906 0.007570461436866035 -0.0015225859514936574 4.690891524079465 -0.011670089882665638 12.442116779424321 -8.283215902955192 6.910892602442798 -0.04578813720927652 46.36129754137158 -0.023631666216124197 -4.357294373322207 -14.768212972654997 -3.818178727983628 0.008664983680356305 0.015557804505204552 -0.04564594583164713 0.016608192759109165 -10.764927246042033 0.01220598909824357 
-0.032624181641757975 0.007790378109328435 -0.025074467673820634 -0.016798699287982676 -0.01611939448526735 0.02859754088744288 4.412881239410094 3.1428345268039513 -2.0713763413893944 -0.8047059772804884 3.4984457911907496 0.34834180308325036 -0.6313825674475017 -1.0835445905151297 -0.02439131376951772 -0.4571878592910949 -0.21652718879559896 -0.4117029292452505 -0.09375399874772508 12.232627438468638 -1.0163346814134873 0.3999249882034451 -0.4474579356170253 -1.6384326287205535 0.7112278472452909 -16.79291129393531 -0.16800294546540162 -9.37281819664352 3.1402886826457483 -18.43323089423586 77.75907680938833 5.169056158992646 -0.013879451754854957 -18.021262443754043 -4.71113469717042 59.691715833063135 22.526614094335894 -0.20181980006819983 -7.336294739423395 4.532968748239499 -0.1437975502977106 -1.552977533181258 -0.00875586381434749 -0.041317103969630065 -56.27102186073174 0.008064777090397839 0.0224679122666301 -56.25239114489828 -38.783215565708545 -0.03980021610936246 0.017436240984072374 -0.03206780112980686 0.023237545950935235 -0.049544363456979434 0.00828051350183641 -0.006024331315071301 0.03776908821103299 -36.653104303053496 0.043188810830399715 0.024821169537270125 -0.025466295960142934 -0.01893323928684221 0.021960214475216906 -0.03801944053065739 -0.0359172105731599 -0.0008049255326595651 -19.72807730844936 -0.03191001613355888 0.01273627109366787 -0.033340012776965584 -0.005874096840331142 0.011222621097629025 0.022636534459402054 -0.01433291788849691 -0.006551172651363331 24.066242794979136 0.04149860381963197 0.00663233410691098 28.827301399681936 0.014409519717835577 -0.00220801440915192 28.82720543858591 -0.012978438310579024 -0.007440328160390287 9.970382132060712 2.3976080839013245 15.305601295317214 -73.60677205735728 19.6050873408026 -12.599975497038583 -43.74092343431062 6.862864889796401 -90.95104175065066 -21.703330325063757 -9.833496454238547 6.66253072372867 -0.4907846451953026 0.058582172680854167 -8.115633848462505 -0.03711370856552988 0.013900788508533353 44.55525201994428 -0.01739896857437589 -0.02467970090561448 44.55198066159307 12.473851339560596 0.025931102694265615 0.014167522858553383 -0.03296507868527335 -0.03800466310917346 -0.022656360248935855 -0.031249600831276172 -0.021177097579456218 -0.017686153111266804 11.132517212620852 0.01708937889301826 0.04815787783473427 0.0033329629227433965 -0.01829016025139851 0.0462806524043042 -0.0016802246398309156 0.011014241638472765 -0.021673441536388758 4.78724491954454 0.038685332051981484 -0.02609375920007728 -0.0115313804592398 0.018449335793183756 -0.035497471520953644 0.041495069317556386 0.03413191781335401 0.00496217659027776 -5.6192665062399465 -0.030370506465536327 -0.029230794050911044 -6.706177500264272 -0.04666667128184763 0.006393842946756333 -6.675641393670777 -0.012458079448940701 0.041951954049841075 0.028352718154271418 -0.007152156330148997 -0.01120540829695377 8.088423742324139 3.474294563626638 -19.249396272262885 -0.017769838283040223 10.381239719101616 0.01156015597963865 -5.5979895574084955 -15.66782348337125 3.2159622175313225 -0.029627068569619112 -0.009608927725158792 -0.04392449155276202 -0.007162399733153253 4.666554462478062 0.0030028749094342406 12.454885833054096 -8.23933220760822 6.875063454102334 -0.015693058147420356 46.36045620458932 0.04616538740587351 -4.322798108992226 -14.732089881174886 -3.8735308683194885 -0.033493395503302256 -0.005238657103732884 -0.001410202563490929 -0.02672730120744733 -10.74200255146897 0.01161554857612974 
0.02982314506795332 -0.031354607524558264 -0.02881465379051596 0.021979829885850247 -0.011326364164821384 0.039356901638073025 4.294643189507672 3.048593072277042 -2.082406816420551 -0.7670719379948818 3.557577547403707 0.32481135585556065 -0.6828435104215992 -1.0904289044429343 -0.01624913907878096 -0.4123364899315629 -0.2640120728510594 -0.4809954539090415 -0.08013494231669674 12.116355772559222 -0.9501246145920124 0.3142114248530631 -0.5288322283198905 -1.5498643886324455 0.7600495520338109 -16.835685819698714 -0.17070869498282193 -9.233967173123458 3.162909088098185 -18.37974463065589 78.35640479556805 4.145144757931677 0.14684090037805508 -16.801708062962618 -3.9571778403674234 58.43025280100958 22.15274912425374 -0.267531848417498 -6.991323618869504 4.49346787356746 -0.09079166332138949 -1.6374424194752146 0.039046149999352034 0.04457821055738489 -56.25811202496294 -0.01320019238433615 0.0053943198948810675 -56.247980128789386 -38.79037216550067 0.015266549243611465 0.01934976156139872 0.03089290234872593 -0.030540074665545675 -0.0012978200660330075 -0.036677071031211435 0.02182676035383797 0.006519846032472171 -36.72153758163638 0.009979575443141042 0.02630565640942846 0.02270104445365781 0.026789571694934927 0.004916474511968469 0.00907254437296596 0.03454384068187608 0.013742602603473023 -19.743033736736457 -0.010175348984169462 0.026873601902723105 -0.01440584112645635 0.041344197637237186 0.039342052177963084 -0.027789529065006122 -0.014370547241016511 0.013159843476803611 24.057570962014537 0.03344942298216746 -0.016748512474440348 28.882709912482476 -0.023834830277793168 0.02963321951270641 28.88236646300889 -0.02039929724516151 -0.0070586462242589205 9.829795541409428 2.3371081822155224 15.217605112129755 -74.26572561451465 18.890699282924828 -12.13073143756992 -46.45892386492418 6.666840581272144 -91.38701656521819 -21.214758176733465 -9.545158379474241 6.3482972948237215 -0.4931331909100802 0.10915631423237045 -8.109152089217957 -0.03971492119558067 -0.007319716368338782 44.55053397489281 0.03132848550789363 -0.04730842091281343 44.5823110618473 12.451500166863802 -0.02517039625325876 0.0271735154046155 -0.00433864363768163 -0.0036509775291784126 -0.03202570631782074 0.039625583590454413 0.0008929775227290286 0.0021892629777773755 11.133000143627553 -0.0008673908479410136 0.03125943961247038 0.02591612795767432 0.038829757623415846 0.04031673476509391 -0.046308625937116 -0.03999595843206617 -0.041693279112036734 4.763937221074896 0.006113796666284549 -0.011524390110631846 -0.03831653217147898 0.025660487032641177 0.00753660088033815 -0.03323540825640363 0.036534426863738194 -0.009460807913721213 -5.556680629750759 -0.047591409357774436 0.013919746724590691 -6.730062425096554 -0.027184118585596277 -0.01921020495493316 -6.695843079693368 -0.021337009855036514 -0.04416884541397521 -0.015585586087355828 -0.0014636791104176792 -0.04445923136305353 8.046937738688724 3.5035168803059387 -19.19147212060777 0.02794389465536594 10.408368556084445 0.04527891094387974 -5.6498478512506605 -15.702497800903302 3.1772462095713117 -0.03610843469352799 -0.028511617716556338 0.032944981274696486 0.03356219894495711 4.7067159701120795 0.007108080677685581 12.466115769266546 -8.258510443919171 6.906600129735446 -0.0132439718209681 46.35146373994014 0.006642513483509199 -4.30963518617798 -14.76290167909746 -3.8141089503140417 0.009683807675507122 -0.04445960344330204 0.005929831221577654 -0.04008066821002246 -10.731740604807188 -0.01603706919453662 
-0.03411126548045464 -0.00487851931171208 -0.02607753677849789 -0.03397161776322311 0.0030442669834480607 -0.03633430663286701 4.26639752633696 2.8884849490544022 -2.0612851660929277 -0.7286890883634147 3.492133231175251 0.34163853750267253 -0.6721039306506971 -1.1444514430611978 -0.0074944606877995965 -0.4868310423453857 -0.3471295921266857 -0.4418695090858624 -0.14362167169527587 12.14357553305253 -0.8193912862928925 0.3444636485274255 -0.566252081671008 -1.2918363131485557 0.736703383396194 -16.784273938500704 -0.18085621752312428 -9.125476191174805 3.083108582714832 -18.252182657002578 79.19376259134252 2.7959849001051285 0.29161944767096454 -14.604586197597309 -2.0885061888146104 55.92890595110696 21.39101201484746 -0.20288707461777275 -6.36546664147532 4.56553680602905 -0.1614899995451986 -1.5883330921269205 -0.022625398725762205 -0.04812507608843043 -56.254889975034146 0.021303045663538807 -0.037100885559549504 -56.196559598396114 -38.78062816507383 -0.02572453436563178 -0.02340366182109015 -0.015750473576939185 -0.049030294105403216 0.037509846866359615 0.03290770236492855 -0.005510931532963989 0.03249672524391592 -36.729683142654615 -0.025234563049733746 0.04433454643788638 0.0015155950951825853 0.027145978386499806 0.0246268111854599 0.007663161596848543 -0.00568408800025104 -0.02878667956223813 -19.741684889443857 0.011892872326826192 0.017828364839963085 -0.03091734847919307 0.012480365053821493 -0.018859899896866726 0.0339826346803796 0.004424583004626817 0.019547433296060672 24.09602367375942 -0.041560032354752495 0.04426591438612046 28.854347109236894 0.044280952933462354 0.026161628339897755 28.82726869980623 0.008650254790160909 0.012897464847106837 9.859685463841227 2.3670908845007586 15.206519118130204 -74.44585251547414 17.91518148250876 -12.419818284040382 -47.49530587308959 6.036686561429783 -91.49720048355073 -20.400712179709053 -9.193683807078688 5.83277943693176 -0.5215153995816008 0.0866170450961965 -8.135405941299306 -0.011372510100140903 0.018559963241977014 44.57611086628441 0.012175005723367964 0.04996624222638593 44.53236907459882 12.453483086674472 -0.049133648140133365 -0.004924470006236768 -0.002642816163436904 0.028279572629762134 0.01327815068627795 -0.019562828476123607 0.010062806170423095 0.03768878451988949 11.141312025188698 -0.019353871920012172 0.0028616455599561144 -0.0004125885290147148 0.005926816226529578 -0.03196972554769479 0.031137488549183252 0.016199515792693304 0.023504276190941902 4.799412610277347 0.024629877315445324 -0.03504730106639094 0.0018209352612100305 0.01040187675343266 0.030593486506369793 0.02860201158187289 0.0035975918755021792 -0.016851345546007167 -5.578645360687575 0.036872269083162997 0.032931502769985285 -6.751979855621922 -0.004216913573128377 0.01671852991465344 -6.707896382690259 0.04781748116245858 -0.02007513093333253 -0.018491957974660727 -0.026629549957526467 0.0010434848385680094 8.062047882852482 3.502235431306902 -19.23823222718982 -0.023601059874444864 10.358059339418636 0.031898975779096936 -5.596780565582543 -15.678552800845944 3.196718982904626 0.010816957883367104 0.005558159624872589 -0.024918034459960957 -0.021586632727758896 4.65165800693169 -0.01841295750112465 12.453617484581105 -8.202737219004192 6.839510879081725 -0.042053841787860355 46.41858920403744 0.032172639326217604 -4.333701541883479 -14.740254212672742 -3.861230898725641 -0.026427170358996912 0.01434977684296666 -0.04347674001903074 0.02790339016404029 -10.782531776312087 -0.001927279457476506 
